<svg width="157" height="157" viewBox="0 0 157 157" fill="none" xmlns="http://www.w3.org/2000/svg">
<path d="M78.5 157C156.395 157 157 121.855 157 78.5C157 35.1451 156.395 0 78.5 0C0.605103 0 0 35.1451 0 78.5C0 121.855 0.605103 157 78.5 157Z" fill="#01BFD0"/>
<path d="M78.9999 28C74.8736 28 71.2631 31.535 71.2631 35.575V63.3499L30 88.5999L34.4237 98.0813L71.2631 86.075V113.85L60.9473 121.425V129L78.9999 123.95L97.0525 129V121.425L86.7367 113.85V86.075L122.943 98.7151L128 88.5999L86.7367 63.3499V35.575C86.7367 31.535 83.1262 28 78.9999 28Z" fill="white"/>
</svg>
