<svg width="48" height="48" viewBox="0 0 48 48" fill="none" xmlns="http://www.w3.org/2000/svg">
<path d="M24 48C47.815 48 48 37.255 48 24C48 10.745 47.815 0 24 0C0.184999 0 0 10.745 0 24C0 37.255 0.184999 48 24 48Z" fill="#02BC62"/>
<rect x="22.3" y="10" width="4" height="29" fill="black"/>
<path d="M26.2642 13.0699C26.2642 13.0699 25 13 24.5 13C24 13 22.3396 13.0382 22.3396 13.0382C18.8679 13.7028 16.7547 16.3613 16.7547 19.3362C16.7547 27.2483 27.1698 24.8747 27.1698 28.989C27.1698 30.5714 25.9623 31.8373 23.6981 31.8373C20.5283 31.8373 18.717 29.4637 18.717 29.4637L16 32.3121C16 32.3121 18.1434 35.1921 22.3396 35.825C22.3396 35.825 23.6659 35.825 24.333 35.825C25 35.825 26.2642 35.7301 26.2642 35.7301C29.9472 34.9705 32 32.3121 32 28.989C32 21.0769 21.5849 23.4505 21.5849 19.3362C21.5849 18.0703 22.6415 16.9626 24.4528 16.9626C26.8679 16.9626 28.3774 18.8615 28.3774 18.8615L31.0943 15.8549C31.0943 15.8549 29.4943 13.7661 26.2642 13.0699Z" fill="white"/>
</svg>
