<svg width="16" height="16" viewBox="0 0 16 16" fill="none" xmlns="http://www.w3.org/2000/svg">
<path d="M4.89266 6.72334L7.99985 3.61623L11.1086 6.72494L12.9166 4.91695L7.99985 0L3.08474 4.91535L4.89266 6.72334ZM0 7.99973L1.80805 6.19168L3.61598 7.99962L1.80795 9.80765L0 7.99973ZM4.89266 9.27661L7.99985 12.3837L11.1086 9.27509L12.9175 11.0821L12.9166 11.0831L7.99985 16L3.08458 11.0848L3.08202 11.0822L4.89266 9.27661ZM12.384 8.00072L14.1921 6.19268L16 8.00061L14.192 9.80866L12.384 8.00072Z" fill="#F3BA2F"/>
<path d="M9.83366 7.99918H9.83445L7.99982 6.16455L6.64399 7.52038H6.64391L6.48815 7.67622L6.16687 7.99758L6.16431 8.00006L6.16687 8.0027L7.99982 9.83573L9.83445 8.0011L9.83534 8.00006L9.83366 7.99918" fill="#F3BA2F"/>
</svg>
