<svg width="48" height="48" viewBox="0 0 48 48" fill="none" xmlns="http://www.w3.org/2000/svg">
<path d="M24 48C47.815 48 48 37.255 48 24C48 10.745 47.815 0 24 0C0.184999 0 0 10.745 0 24C0 37.255 0.184999 48 24 48Z" fill="#F7931A"/>
<path d="M31.7537 22.5298C31.0138 21.9702 30.0531 21.707 28.8717 21.7406C30.094 20.6448 30.3896 19.2617 29.759 17.5908C29.5352 16.9837 29.2175 16.4906 28.8053 16.1109C28.3929 15.7312 27.9033 15.4683 27.3348 15.3225C26.7667 15.1762 26.1732 15.108 25.5553 15.1169C24.9372 15.1259 24.2442 15.1978 23.4767 15.3328L22.5215 11.7679L20.329 12.3554L21.2577 15.8212C20.878 15.9229 20.3016 16.0875 19.5284 16.3149L18.5921 12.8208L16.3994 13.4083L17.3546 16.9732C17.0438 17.0666 16.5848 17.1947 15.9774 17.3575L12.9552 18.152L13.5768 20.472L15.1571 20.0486C15.8785 19.8553 16.3869 20.0628 16.682 20.671L17.7699 24.731C17.865 24.7055 17.9421 24.69 18.0016 24.6842L17.7737 24.7453L19.2974 30.4318C19.3504 30.933 19.1397 31.2474 18.665 31.3745L17.0849 31.798L17.3371 34.505L20.1847 33.742C20.3651 33.6937 20.6266 33.6262 20.9696 33.5388C21.3125 33.4521 21.5693 33.3858 21.7402 33.34L22.7067 36.9472L24.8998 36.3596L23.9446 32.7948C24.3458 32.6976 24.926 32.5471 25.6853 32.3437L26.6367 35.8942L28.8292 35.3067L27.8626 31.6995C28.631 31.4532 29.3027 31.1979 29.8772 30.9323C30.4521 30.6667 30.9854 30.3498 31.4764 29.9805C31.9674 29.6116 32.3537 29.2122 32.6354 28.7829C32.9173 28.3539 33.1107 27.8521 33.2167 27.2778C33.3218 26.7037 33.3183 26.0729 33.2051 25.3854C32.9779 24.0417 32.4938 23.0897 31.7537 22.5298ZM20.2532 18.8494C20.3197 18.8316 20.5065 18.779 20.8137 18.6916C21.1211 18.604 21.376 18.5307 21.5788 18.4713C21.7816 18.4119 22.0601 18.35 22.4142 18.2854C22.7683 18.2209 23.0702 18.1805 23.3201 18.164C23.5699 18.1475 23.852 18.1553 24.1656 18.1875C24.4796 18.2195 24.7427 18.2906 24.955 18.4005C25.1677 18.5102 25.3655 18.6696 25.5484 18.8784C25.7316 19.087 25.8648 19.3469 25.9482 19.6581C26.019 19.9222 26.0408 20.1742 26.0136 20.414C25.9866 20.6537 25.9068 20.8697 25.7753 21.0616C25.6437 21.2536 25.502 21.4282 25.3506 21.5849C25.1995 21.7415 24.9925 21.8905 24.7302 22.0315C24.4681 22.1725 24.2376 22.2899 24.0389 22.3835C23.8402 22.4772 23.5862 22.5731 23.2767 22.6711C22.9672 22.7692 22.7324 22.8424 22.5723 22.8902C22.4122 22.9382 22.1915 22.9973 21.9102 23.0677C21.6288 23.1381 21.4646 23.1794 21.417 23.1922L20.2533 18.8493L20.2532 18.8494L20.2532 18.8494ZM28.8217 26.8785C28.7894 27.1198 28.7239 27.3396 28.6246 27.5382C28.525 27.7364 28.3754 27.9282 28.1757 28.113C27.9763 28.298 27.7771 28.4573 27.5792 28.5912C27.3811 28.7255 27.1351 28.8618 26.8422 29.0011C26.5485 29.1405 26.2888 29.2528 26.0624 29.3389C25.8363 29.4248 25.5638 29.518 25.2447 29.6187C24.9259 29.7191 24.6761 29.7937 24.4958 29.842C24.3154 29.8903 24.0869 29.9488 23.8104 30.0179C23.5338 30.0873 23.3577 30.132 23.2817 30.1523L22.0005 25.3707C22.0763 25.3504 22.3006 25.2854 22.673 25.1753C23.0455 25.0653 23.3503 24.9789 23.5876 24.9153C23.8249 24.8517 24.1562 24.7779 24.5816 24.6944C25.0066 24.6107 25.3691 24.5588 25.6693 24.539C25.9691 24.5195 26.3031 24.5233 26.6719 24.551C27.0404 24.5786 27.3519 24.6492 27.6063 24.763C27.8607 24.877 28.0942 25.0466 28.3073 25.2726C28.5207 25.4984 28.6728 25.7811 28.7638 26.1207C28.8346 26.3851 28.8539 26.6373 28.8217 26.8785Z" fill="white"/>
</svg>
