<svg width="48" height="48" viewBox="0 0 48 48" fill="none" xmlns="http://www.w3.org/2000/svg">
<path d="M24 48C47.815 48 48 37.255 48 24C48 10.745 47.815 0 24 0C0.184999 0 0 10.745 0 24C0 37.255 0.184999 48 24 48Z" fill="#00439B"/>
<path fill-rule="evenodd" clip-rule="evenodd" d="M28.3751 14H19.2722L18.5179 18.1555L26.7325 18.1656C30.778 18.1642 31.974 19.6129 31.9397 22.0144C31.9222 23.2454 31.3808 25.3266 31.1468 26.0015C30.5233 27.7996 29.2433 29.8512 24.4413 29.8439L16.4563 29.8405L15.7004 34H24.7831C27.9865 34 29.3485 33.6327 30.7922 32.9756C33.9908 31.5195 35.8941 28.408 36.6566 24.3474C37.7919 18.3013 36.3777 14 28.3751 14Z" fill="white"/>
<path fill-rule="evenodd" clip-rule="evenodd" d="M15.3444 21.9133C12.9598 21.9133 12.6183 23.4447 12.3925 24.3703C12.0971 25.5821 12 26.0729 12 26.0729H21.3206C23.7052 26.0729 24.0467 24.5415 24.2725 23.6159C24.5679 22.4041 24.665 21.9133 24.665 21.9133H15.3444Z" fill="white"/>
</svg>
