<svg width="48" height="48" viewBox="0 0 48 48" fill="none" xmlns="http://www.w3.org/2000/svg">
<path d="M24 48C47.815 48 48 37.255 48 24C48 10.745 47.815 0 24 0C0.184999 0 0 10.745 0 24C0 37.255 0.184999 48 24 48Z" fill="#F6D935"/>
<path d="M24 45C44.8381 45 45 35.5981 45 24C45 12.4019 44.8381 3 24 3C3.16187 3 3 12.4019 3 24C3 35.5981 3.16187 45 24 45Z" fill="#CC9015"/>
<path d="M23.5 38C37.8882 38 38 31.5082 38 23.5C38 15.4918 37.8882 9 23.5 9C9.11177 9 9 15.4918 9 23.5C9 31.5082 9.11177 38 23.5 38Z" fill="#F6D935"/>
<path d="M27.7285 16.5092H25.7461H15.5092L16.3541 17.6141H24.9337L25.7786 16.5092V21.5139H31.1408L25.7786 25.2837V29.3135L21.5538 26.3561L14.2092 31.4909H24.6737C27.9235 31.4909 31.1408 28.9885 32.0833 25.8037L32.7008 22.7813C33.4157 19.304 31.2058 16.5092 27.7285 16.5092Z" fill="#CC9015"/>
<path d="M21.9114 21.5139L22.7563 20.4089H18.3365L19.1815 21.5139H21.9114Z" fill="#CC9015"/>
<path d="M24.2512 18.4591H16.9716L17.784 19.564H23.4062L24.2512 18.4591Z" fill="#CC9015"/>
</svg>
