<svg width="48" height="48" viewBox="0 0 48 48" fill="none" xmlns="http://www.w3.org/2000/svg">
<path d="M24 48C47.815 48 48 37.255 48 24C48 10.745 47.815 0 24 0C0.184999 0 0 10.745 0 24C0 37.255 0.184999 48 24 48Z" fill="black"/>
<path d="M12.1695 18.1518V16.2375H16.2762V14.5759H12.1695V12.8482H17.4314V11.1806H10V19.8134H17.5793V18.1518H12.1695Z" fill="white"/>
<path d="M19.5939 19.8134H21.7634V16.7913H23.6371L25.5812 19.8134H27.8917L25.7292 16.5445L25.9123 16.4602C26.0391 16.412 26.187 16.3217 26.3702 16.1893C26.5463 16.0569 26.7224 15.9003 26.8914 15.7137C27.0605 15.5331 27.2084 15.2863 27.3352 14.9853C27.462 14.6843 27.5254 14.3652 27.5254 14.0161C27.5254 13.2214 27.2014 12.5532 26.5463 12.0054C25.8912 11.4575 25.06 11.1806 24.0598 11.1806H19.5868L19.5939 19.8134ZM25.3629 14.0161C25.3629 14.3291 25.2361 14.594 24.9755 14.8107C24.7148 15.0274 24.3838 15.1298 23.9893 15.1298H21.7564V12.8482H23.9893C24.3838 12.8482 24.7148 12.9625 24.9755 13.1793C25.2361 13.402 25.3629 13.6789 25.3629 14.0161Z" fill="white"/>
<path d="M34.7454 11C33.2028 11 31.8997 11.4395 30.8431 12.3184C29.7865 13.1973 29.2582 14.2569 29.2582 15.497C29.2582 16.7371 29.7865 17.8027 30.8431 18.6816C31.8997 19.5605 33.2028 20 34.7454 20C35.2667 20 35.7739 19.9398 36.2669 19.8134C36.76 19.693 37.1545 19.5545 37.4574 19.404C37.7603 19.2535 38.042 19.0789 38.3097 18.8803C38.5774 18.6816 38.7464 18.5431 38.8239 18.4649C38.9014 18.3866 38.9577 18.3204 39 18.2722L37.6969 17.0983L37.5842 17.2247C37.5067 17.3151 37.3869 17.4174 37.2179 17.5378C37.0488 17.6582 36.8516 17.7786 36.6332 17.899C36.4078 18.0194 36.1331 18.1217 35.795 18.206C35.4569 18.2903 35.1117 18.3324 34.7454 18.3324C33.8016 18.3324 33.0126 18.0615 32.3787 17.5197C31.7447 16.9779 31.4277 16.3037 31.4277 15.497C31.4277 14.6903 31.7447 14.0161 32.3787 13.4742C33.0126 12.9324 33.8016 12.6615 34.7454 12.6615C35.0836 12.6615 35.4217 12.7097 35.7527 12.8C36.0768 12.8903 36.3444 12.9866 36.5487 13.095C36.7459 13.2033 36.9361 13.3237 37.1052 13.4622C37.2742 13.6067 37.3869 13.703 37.4362 13.7632C37.4855 13.8234 37.5278 13.8656 37.556 13.8957L38.9296 12.7217L38.7675 12.5411C38.6619 12.4268 38.4928 12.2823 38.2533 12.1137C38.0138 11.9452 37.7462 11.7766 37.4362 11.608C37.1263 11.4395 36.7389 11.301 36.2599 11.1806C35.7809 11.0602 35.2737 11 34.7454 11Z" fill="white"/>
<path d="M22.3891 36.7097V34.0221H16.6414C16.9035 33.61 17.2967 33.1886 17.8209 32.7766C18.3358 32.3645 18.8413 31.99 19.3374 31.6622C19.8335 31.3344 20.3203 30.9786 20.7977 30.5853C21.2658 30.192 21.6496 29.7237 21.9491 29.1619C22.2393 28.6094 22.3891 27.9913 22.3891 27.3077C22.3891 26.0997 21.9398 25.0789 21.0598 24.2455C20.1799 23.4214 19.0566 23 17.6899 23C16.9878 23 16.3419 23.1217 15.7615 23.3465C15.1811 23.5712 14.7318 23.8241 14.4135 24.0957C14.0952 24.3766 13.8144 24.695 13.571 25.0602C13.3276 25.4254 13.1779 25.6783 13.1217 25.8187C13.0655 25.9686 13.0187 26.0809 13 26.1652L15.3964 27.3077L15.5462 26.905C15.6585 26.6428 15.8832 26.3712 16.2389 26.0903C16.5946 25.8187 17.0159 25.6783 17.5026 25.6783C18.1111 25.6783 18.5792 25.8375 18.9162 26.1465C19.2532 26.4555 19.4217 26.8769 19.4217 27.4107C19.4217 27.8696 19.2532 28.3003 18.9349 28.6936C18.6166 29.087 18.2141 29.4334 17.746 29.7331C17.278 30.0328 16.7631 30.3886 16.2108 30.81C15.6492 31.2314 15.1343 31.6716 14.6663 32.1398C14.1888 32.608 13.7957 33.2355 13.4774 34.0314C13.1591 34.8368 13 35.7264 13 36.7097H22.3891Z" fill="white"/>
<path d="M27.3785 29.9953C27.3785 28.5906 27.6593 27.5043 28.2304 26.7365C28.792 25.9686 29.466 25.5846 30.2523 25.5846C31.0293 25.5846 31.7033 25.9686 32.2743 26.7365C32.836 27.5043 33.1262 28.5906 33.1262 29.9953C33.1262 31.4 32.836 32.4863 32.2743 33.2542C31.7033 34.0221 31.0293 34.406 30.2523 34.406C29.466 34.406 28.792 34.0221 28.2304 33.2542C27.6593 32.4863 27.3785 31.4 27.3785 29.9953ZM36 29.9953C36 27.8977 35.4383 26.212 34.3244 24.9291C33.2011 23.6462 31.8437 23 30.2523 23C28.6516 23 27.2943 23.6462 26.1803 24.9291C25.057 26.212 24.5047 27.8977 24.5047 29.9953C24.5047 32.093 25.057 33.788 26.1803 35.0709C27.2943 36.3632 28.6516 37 30.2523 37C31.8437 37 33.2011 36.3632 34.3244 35.0709C35.4383 33.788 36 32.093 36 29.9953Z" fill="white"/>
</svg>
