<svg width="48" height="48" viewBox="0 0 48 48" fill="none" xmlns="http://www.w3.org/2000/svg">
<path d="M24 48C47.815 48 48 37.255 48 24C48 10.745 47.815 0 24 0C0.184999 0 0 10.745 0 24C0 37.255 0.184999 48 24 48Z" fill="#2468E4"/>
<path fill-rule="evenodd" clip-rule="evenodd" d="M23.1729 12.5028C23.5571 11.8324 24.5239 11.8324 24.9081 12.5028L31 23.1324L24.5684 27.13C24.2451 27.3307 23.8359 27.3307 23.5127 27.13L17.0808 23.1324L23.1729 12.5028ZM23.4324 29.671C23.7554 29.8717 24.1642 29.8717 24.4872 29.6713L30.923 25.6771L24.7887 34.7614C24.3921 35.3488 23.5275 35.3485 23.1311 34.7614L17 25.6771L23.4324 29.671Z" fill="white"/>
</svg>
