<svg width="48" height="48" viewBox="0 0 48 48" fill="none" xmlns="http://www.w3.org/2000/svg">
<path d="M24 48C47.815 48 48 37.255 48 24C48 10.745 47.815 0 24 0C0.184999 0 0 10.745 0 24C0 37.255 0.184999 48 24 48Z" fill="#2468E4"/>
<path fill-rule="evenodd" clip-rule="evenodd" d="M33 26.3571H19.9091C17.0144 26.3571 15 24.2459 15 21.6429H28.9091C30.9848 21.6429 33 23.7541 33 26.3571ZM28.9091 13H19.9091C17.0152 13 15 14.9486 15 17.7143V20.0714H19.9091V17.7143H33C33 14.9486 30.9848 13 28.9091 13ZM28.0909 27.9286V30.2857H15C15 33.0514 17.0152 35 19.9091 35H28.9091C30.9848 35 33 33.0514 33 30.2857V27.9286H28.0909Z" fill="white"/>
</svg>
