<svg width="16" height="16" viewBox="0 0 16 16" fill="none" xmlns="http://www.w3.org/2000/svg">
<path d="M6.8986 0.176567C6.22774 0.391363 5.41152 1.17895 5.04255 1.94268C4.81893 2.42 4.75185 2.73026 4.74067 3.38659C4.72948 4.78277 4.96428 5.1527 7.55827 8.00472C9.4255 10.0572 9.82801 10.5584 9.92864 10.9761C10.3871 12.7899 8.59811 14.3293 7.02159 13.4701C6.0153 12.9212 5.62396 11.4415 6.23892 10.451L6.51844 10.0095L7.59182 11.2267C8.53102 12.3007 8.68755 12.4319 8.84409 12.2887C9.10125 12.0739 9.1907 11.4057 9.02298 11.0715C8.94472 10.9164 8.35212 10.2124 7.71481 9.49637L6.52962 8.20759L5.92585 8.84005C5.6016 9.18611 5.19909 9.73503 5.04255 10.0692C4.44996 11.2744 4.74067 13.0525 5.69105 14.0548C6.83151 15.272 8.85527 15.3198 10.0964 14.1622C10.8455 13.4582 11.1586 12.6945 11.1586 11.5489C11.1586 10.2124 10.9238 9.8305 8.43039 7.07394C6.27246 4.6873 5.90349 4.16224 5.90349 3.48205C5.90349 3.01666 6.16065 2.30067 6.44018 1.97847C7.03277 1.27442 8.18441 1.09542 8.98944 1.59661C9.50377 1.91881 10.0405 2.87346 10.0405 3.43432C10.0405 3.80425 9.67148 4.6873 9.47022 4.8305C9.36959 4.89017 9.00062 4.55604 8.28504 3.73265L7.24521 2.55127L7.02159 2.83766C6.88741 2.99279 6.79797 3.29112 6.79797 3.52979C6.79797 3.89971 6.94332 4.10258 8.10614 5.36749L9.41432 6.79947L10.0069 6.16702C10.8455 5.28396 11.1586 4.56797 11.1586 3.54172C11.1586 2.39614 10.8455 1.56081 10.1523 0.904489C9.26897 0.0572355 8.0726 -0.217227 6.8986 0.176567Z" fill="#41BFB4"/>
<path d="M11.3261 2.3247C11.3708 2.45597 11.4267 2.95716 11.4491 3.44642L11.4715 4.34141L12.7685 5.91659L14.0654 7.49177L12.7685 9.05501L11.4715 10.6183L11.4491 11.6803C11.4379 12.2531 11.4715 12.7066 11.5162 12.6827C11.5609 12.6588 12.5896 11.4774 13.7971 10.0574L15.9998 7.49177L15.7202 7.16957C15.5637 6.99057 14.5462 5.79726 13.4505 4.52041C11.505 2.24117 11.136 1.85931 11.3261 2.3247Z" fill="#41BFB4"/>
<path d="M2.21403 4.83068C1.01766 6.25073 0.0225516 7.43211 0.000189619 7.47984C-0.0333533 7.58724 4.39432 12.7901 4.55085 12.8498C4.62912 12.8736 4.62912 12.7424 4.55085 12.4918C4.49495 12.277 4.45022 11.7758 4.45022 11.382C4.45022 10.666 4.43904 10.6421 3.81291 9.87841C3.45512 9.44882 2.8737 8.74476 2.51591 8.30323L1.85623 7.51564L3.15323 5.9524L4.45022 4.40109V3.58963C4.45022 3.1481 4.48377 2.67078 4.51731 2.51565C4.56203 2.37245 4.53967 2.25312 4.49495 2.26505C4.43904 2.26505 3.41039 3.42257 2.21403 4.83068Z" fill="#41BFB4"/>
</svg>
