<svg width="48" height="48" viewBox="0 0 48 48" fill="none" xmlns="http://www.w3.org/2000/svg">
<path d="M24 48C47.815 48 48 37.255 48 24C48 10.745 47.815 0 24 0C0.184999 0 0 10.745 0 24C0 37.255 0.184999 48 24 48Z" fill="#F4F4F4"/>
<path d="M19.9859 12.0783C19.8102 12.1264 19.3709 12.3028 19.0035 12.4792C17.7577 13.0806 16.7115 14.4198 16.4399 15.7429C16.3281 16.2962 16.3281 17.3226 16.4399 17.8599C16.5677 18.4774 16.999 19.3354 17.4702 19.9208C17.7018 20.2014 17.8535 20.45 17.8056 20.4821C16.6636 21.2198 15.4896 22.0538 15.5215 22.1019C15.5455 22.142 16.3281 22.1741 17.2625 22.1741C20.7925 22.1741 22.8929 21.6288 24.2745 20.3458C24.9853 19.6802 25.4565 18.8863 25.704 17.9241C25.8158 17.467 25.8238 16.1599 25.704 15.6547C25.3127 13.9788 23.7634 12.4311 22.1182 12.0783C21.623 11.974 20.4411 11.974 19.9859 12.0783ZM21.5751 13.1127C22.1661 13.2089 22.9008 13.5538 23.4439 13.9868L23.8752 14.3316L23.6995 14.516L23.5238 14.7005L23.0206 14.3156C22.2939 13.7623 21.9026 13.6339 20.9442 13.6339C20.2095 13.6339 20.0977 13.658 19.6105 13.8906L19.0754 14.1391L18.9476 13.9387C18.7879 13.6981 18.7959 13.6901 19.4667 13.3854C20.1536 13.0726 20.8164 12.9844 21.5751 13.1127Z" fill="#F70202"/>
<path d="M27.429 13.1686C27.5328 13.5535 27.4769 15.911 27.3491 16.5605C26.8061 19.3431 25.5602 21.1393 23.2841 22.4384C22.0862 23.128 20.4809 23.4568 18.3566 23.4568C15.9287 23.4568 14.3075 23.12 13.3012 22.4063C12.9259 22.1337 12.9099 22.2219 13.2054 22.8794C13.6766 23.9139 14.4672 24.8521 15.3777 25.4455C16.4718 26.1592 18.1888 26.8648 19.4028 27.1054C20.4649 27.3139 20.3771 27.2337 20.3132 27.9394C20.2094 29.1021 19.866 30.1686 19.2111 31.3073C18.5323 32.5021 17.7736 33.2158 16.8232 33.5606C15.9766 33.8733 14.587 33.7049 13.5568 33.1677C13.3012 33.0314 13.0616 32.9191 13.0377 32.9191C12.9658 32.9191 13.0856 33.32 13.2853 33.7932C13.7085 34.7474 14.3634 35.3809 15.3777 35.7818C15.8968 35.9903 15.9687 35.9983 17.5899 35.9983C19.2111 36.0064 19.291 35.9983 20.0257 35.7818C20.441 35.6535 20.9761 35.4611 21.2077 35.3568C21.4393 35.2526 21.6469 35.1644 21.6629 35.1644C21.8546 35.1644 25.089 33.2238 27.0137 31.9568C28.595 30.9144 29.8648 30.2167 30.6874 29.9361C32.2288 29.4148 33.3069 29.8238 33.8899 31.1389C34.0736 31.5479 34.1295 31.7483 34.2812 32.47C34.3451 32.7828 34.409 32.6865 34.7365 31.7163C34.984 30.9946 35 30.8983 35 29.7917C35 28.6931 34.984 28.6049 34.7844 28.1639C34.3691 27.2738 33.9139 26.8488 32.9635 26.4478C32.4843 26.2554 32.3565 26.2394 31.3662 26.2394C30.4079 26.2394 30.1843 26.2714 29.3377 26.496C28.8106 26.6403 28.3155 26.7927 28.2356 26.8327C28.1478 26.8809 27.9401 26.9611 27.7724 27.0252L27.4609 27.1375L27.7405 26.6403C28.5551 25.2049 29.2898 23.2403 29.5294 21.8931C29.6891 20.9469 29.8488 19.4794 29.8488 18.9101C29.8488 18.2525 29.6572 16.737 29.4895 16.0714C29.3377 15.494 29.0263 14.7884 28.7228 14.3393C28.4273 13.9143 27.5408 12.952 27.445 12.952C27.405 12.952 27.397 13.0483 27.429 13.1686Z" fill="#006EBD"/>
</svg>
