<svg width="48" height="48" viewBox="0 0 48 48" fill="none" xmlns="http://www.w3.org/2000/svg">
<path d="M24 48C47.815 48 48 37.255 48 24C48 10.745 47.815 0 24 0C0.184999 0 0 10.745 0 24C0 37.255 0.184999 48 24 48Z" fill="#0993A1"/>
<path d="M28.7125 14.0677L28.1 14.1218L28.15 16.2854L28.1875 18.4355H27.6H27V16.2719V14.1083H26.375H25.7375L25.775 16.2719L25.8125 18.4491L23.9375 18.4085L22.0625 18.3679L22.025 16.2314L21.9875 14.1083H21.5H21V16.8128V19.5173L26.9125 19.5444L32.8125 19.585V20.2611V20.9372L26.35 20.9778L19.875 21.0048V17.5566V14.1083H19.25H18.625V18.1651V22.2219L25.75 22.1948L32.875 22.1542V22.7628V23.3713H25.1875H17.5V18.733V14.1083H16.9375H16.375V18.733V23.3713H15.75H15.125V18.733V14.1083H14.5625H14L14.0375 24.0068L14.0625 33.9189L14.6 33.9594L15.125 34V31.8364V29.6593H15.6875H16.25V31.8229V33.9865H16.875H17.5V31.8229V29.6593H18.0625H18.625V31.8229V33.9865H19.25H19.8875L19.85 31.8229L19.8125 29.6593H20.4125H21V31.8229V33.9865H21.5H21.9875L22.025 31.8499L22.0625 29.7269L23.9375 29.6863L25.8125 29.6457L25.775 31.8229L25.7375 33.9865H26.375H27V31.282V28.5775H21.0625H15.125V27.9013V27.2252H21.6625H28.1875L28.15 30.6058L28.1125 33.9865H28.6875H29.25V29.9297V25.8729L22.2 25.9H15.0625V25.3381V24.7235H22.8375H30.6125V29.3212V33.9189L31.125 33.9594L31.625 34V29.3618V24.7235H32.25H32.875V29.3482V33.9865H33.4375H34V24.0609V14.1354L33.4125 14.0813L32.8125 14.0407L32.85 16.2314L32.8875 18.4355H32.25H31.625V16.2719V14.1083H31.125H30.625L30.6125 16.0691C30.6 17.1509 30.5875 18.111 30.575 18.1921C30.5625 18.3003 30.3125 18.3814 29.9 18.4085L29.2375 18.4491L29.275 16.2178C29.3 14.9738 29.3125 13.9866 29.3125 14.0001C29.3125 14.0137 29.0375 14.0407 28.7125 14.0677Z" fill="white"/>
</svg>
