<svg width="48" height="48" viewBox="0 0 48 48" fill="none" xmlns="http://www.w3.org/2000/svg">
<path d="M24 48C47.815 48 48 37.255 48 24C48 10.745 47.815 0 24 0C0.184999 0 0 10.745 0 24C0 37.255 0.184999 48 24 48Z" fill="#00A0E3"/>
<path d="M15 13.0087L15 35H17.8059V13.0087H15Z" fill="#FFEC00"/>
<path d="M19.2206 17.6572V29.9827H21.302V17.6572H19.2206Z" fill="#FFEC00"/>
<path d="M15.8109 25.27H24.321V22.7324H15.8109V25.27Z" fill="#FFEC00"/>
<path d="M32.0166 12.9999L20.5444 23.9955L32.0166 34.9912L33.9999 33.0904L24.5105 23.9955L33.9999 14.9006L32.0166 12.9999Z" fill="#FFEC00"/>
</svg>
