<svg width="157" height="157" viewBox="0 0 157 157" fill="none" xmlns="http://www.w3.org/2000/svg">
<path d="M78.5 157C156.395 157 157 121.855 157 78.5C157 35.1451 156.395 0 78.5 0C0.605102 0 0 35.1451 0 78.5C0 121.855 0.605102 157 78.5 157Z" fill="#2195EA"/>
<path d="M98.5216 119.163C106.315 119.163 110.887 110.462 106.427 104.119C101.506 97.121 98.2948 91.9235 93.5147 84.9688C92.5229 83.5257 89.013 83.5296 88.0157 84.9688L67.0694 115.247C65.9201 116.906 66.7634 119.162 68.7691 119.162L98.5216 119.163Z" fill="white"/>
<path fill-rule="evenodd" clip-rule="evenodd" d="M49 109.793C49 114.617 51.9217 118.338 56.6982 119.184C57.3846 119.305 58.0616 118.981 58.4709 118.417L89.7549 75.28C89.8325 75.148 89.917 75.0187 90.0085 74.8927L105.838 53.0874C110.442 46.7459 105.771 38 97.7804 38H58.8586C53.4139 38 49 42.2857 49 47.5724V109.793Z" fill="white"/>
</svg>
