<svg width="48" height="48" viewBox="0 0 48 48" fill="none" xmlns="http://www.w3.org/2000/svg">
<path d="M24 48C47.815 48 48 37.255 48 24C48 10.745 47.815 0 24 0C0.184999 0 0 10.745 0 24C0 37.255 0.184999 48 24 48Z" fill="#2E71F0"/>
<path fill-rule="evenodd" clip-rule="evenodd" d="M18.1405 28.7733H18.9839V19.2368H18.1405V28.7733ZM36.0438 23.9925C35.6983 24.5909 34.5117 26.3656 32.3938 26.7778C32.1575 25.7698 31.6523 24.7885 30.833 24.0002C31.6567 23.208 32.1626 22.2209 32.3974 21.2075C34.5037 21.6184 35.6973 23.396 36.0438 23.9925ZM31.9463 17.3319C30.9082 15.4622 29.0659 14.389 26.7317 14.281C26.6569 13.7517 26.4382 13.285 26.0869 12.9147C25.5632 12.3628 24.7784 12.059 23.8774 12.059H23.456V14.2726H22.2463C22.0115 12.954 21.038 11 18.5628 11H18.1411V14.2726H13L13.1199 14.8126C13.7878 17.8231 16.3798 18.2081 18.5628 18.2081H21.8173C21.9285 18.2081 22.0528 18.2074 22.188 18.2053C23.4596 18.1914 25.8329 18.168 26.8254 19.1971C27.1298 19.512 27.2779 19.9046 27.2779 20.3958C27.2747 20.888 27.1254 21.2778 26.8203 21.5879C25.8276 22.5982 23.4271 22.5459 22.2706 22.5187V19.2375H21.4269V23.3903L21.8464 23.3931C21.9608 23.3942 22.0955 23.3967 22.2475 23.3997C23.6167 23.4317 26.1609 23.4896 27.408 22.2206C27.877 21.7429 28.1169 21.1305 28.1208 20.3986C28.1208 19.6674 27.8846 19.0528 27.4182 18.57C26.176 17.2832 23.5774 17.3086 22.1795 17.3236C22.0472 17.3256 21.9261 17.3263 21.8173 17.3263H18.5628C15.9914 17.3263 14.6496 16.6889 14.0959 15.1547H18.9842V11.9072C21.2337 12.181 21.4488 14.6363 21.4568 14.746L21.4859 15.1547H24.2994V12.97C24.7898 13.0401 25.2032 13.2352 25.4884 13.5361C25.7754 13.8389 25.9198 14.2333 25.9167 14.7097L25.9138 15.1539H26.3381C27.6168 15.1539 29.951 15.495 31.2173 17.7743C32.1177 19.3967 31.8791 22.1035 29.9233 23.6481L29.4776 24.0004L29.9228 24.3519C31.8791 25.8973 32.1177 28.6041 31.2173 30.2254C30.2664 31.9382 28.5337 32.8811 26.3381 32.8811H25.9138L25.9167 33.3253C25.9196 33.7655 25.7936 34.1236 25.5421 34.3879C25.2663 34.6795 24.8332 34.8659 24.2994 34.9289V32.8811L21.4949 32.8819L21.4578 33.2801C21.4473 33.3888 21.1934 35.8175 18.9842 36.0928V32.8811H14.0971C14.6569 31.3411 16.0295 30.6744 18.562 30.6744H21.8173C21.9465 30.6744 22.1023 30.6785 22.2793 30.682C23.6361 30.7158 26.1626 30.774 27.4015 29.5003C27.8829 29.0053 28.1247 28.3661 28.1208 27.6004C28.1169 26.8695 27.877 26.2584 27.408 25.7804C26.1602 24.5111 23.6133 24.5693 22.2463 24.6013C22.0946 24.6041 21.9603 24.6069 21.8464 24.6079L21.4269 24.6107V28.774H22.2706V25.4823C23.4283 25.4561 25.8276 25.4025 26.8198 26.4128C27.1254 26.7229 27.2747 27.1133 27.2779 27.6042C27.2803 28.1309 27.1274 28.5451 26.8108 28.8712C25.8259 29.8836 23.5317 29.8292 22.298 29.8013C22.1145 29.7964 21.9523 29.7926 21.8173 29.7926H18.562C16.5527 29.7926 13.8021 30.1479 13.1199 33.222L13 33.7629H18.1411V37H18.5628C20.9968 37 21.9875 35.0655 22.24 33.7629H23.456V35.835H23.8774C24.8454 35.835 25.6278 35.5501 26.14 35.0094C26.459 34.6739 26.6593 34.2455 26.7304 33.7535C29.054 33.6446 30.8966 32.5583 31.9463 30.6691C32.4119 29.83 32.6256 28.7514 32.5328 27.6484C35.4968 27.0815 36.8497 24.3074 36.9063 24.1888L37 23.992L36.9063 23.7952C36.85 23.6778 35.497 20.9043 32.534 20.3369C32.6234 19.2395 32.4097 18.167 31.9463 17.3319Z" fill="white"/>
</svg>
