<svg width="48" height="48" viewBox="0 0 48 48" fill="none" xmlns="http://www.w3.org/2000/svg">
<path d="M24 48C47.815 48 48 37.255 48 24C48 10.745 47.815 0 24 0C0.184999 0 0 10.745 0 24C0 37.255 0.184999 48 24 48Z" fill="black"/>
<path d="M22.5 11.866C23.4282 11.3301 24.5718 11.3301 25.5 11.866L33.7583 16.634C34.6865 17.1699 35.2583 18.1603 35.2583 19.2321V28.768C35.2583 29.8397 34.6865 30.8301 33.7583 31.366L25.5 36.134C24.5718 36.6699 23.4282 36.6699 22.5 36.134L14.2417 31.366C13.3135 30.8301 12.7417 29.8397 12.7417 28.768V19.2321C12.7417 18.1603 13.3135 17.1699 14.2417 16.634L22.5 11.866Z" fill="white"/>
<path d="M30.1845 27.4203V17.8657C30.1845 17.4809 30.601 17.2403 30.9343 17.4326L32.9657 18.6046C33.2753 18.7832 33.466 19.1134 33.466 19.4708V28.563C33.466 28.9074 33.2888 29.2275 32.997 29.4104L24.7655 34.5688C24.4325 34.7775 24 34.5381 24 34.1451V32.3273C24 31.9792 24.181 31.6562 24.4778 31.4744L29.7066 28.2731C30.0035 28.0914 30.1845 27.7684 30.1845 27.4203Z" fill="black"/>
<path d="M18.8719 22.3591V25.6407H18.4186L16.0966 23.1936V25.6407H15.5437V22.3591H15.997L18.3191 24.8062V22.3591H18.8719Z" fill="black"/>
<path d="M22.496 24.8203H20.4394L20.0137 25.6407H19.4443L21.1968 22.3591H21.7442L23.5023 25.6407H22.9217L22.496 24.8203ZM22.3025 24.4453L21.4677 22.8373L20.6329 24.4453H22.3025Z" fill="black"/>
<path d="M27.4078 22.3591V25.6407H26.9544L24.6324 23.1936V25.6407H24.0796V22.3591H24.5329L26.8549 24.8062V22.3591H27.4078Z" fill="black"/>
</svg>
