<svg width="48" height="48" viewBox="0 0 48 48" fill="none" xmlns="http://www.w3.org/2000/svg">
<path d="M24 48C47.815 48 48 37.255 48 24C48 10.745 47.815 0 24 0C0.184999 0 0 10.745 0 24C0 37.255 0.184999 48 24 48Z" fill="#F4F4F4"/>
<path d="M13.0111 15.9453C14.4918 15.0879 16.0419 14.4165 17.6723 13.9309C19.8934 13.2705 22.1478 12.9598 24.4632 13.0042C25.5391 13.0264 27.3304 13.2012 27.6326 13.3177C27.6437 13.3399 27.6215 13.3538 27.5966 13.3538C27.494 13.4009 27.3775 13.4342 27.2721 13.4814C25.3644 14.2805 24.0112 15.9592 23.6174 17.9958C23.5592 18.3315 23.5259 18.6673 23.5149 19.003C23.5038 19.5135 23.4566 20.0213 23.3069 20.518C22.7967 22.3132 21.3298 23.7116 19.5136 24.1306C17.1289 24.6717 14.722 23.4924 13.6821 21.281C13.6239 21.1534 13.5795 21.0257 13.5546 20.8981C13.3799 20.1462 13.2551 19.3942 13.1608 18.6284C13.0582 17.7849 13 16.9386 13 16.0951C13.0111 16.0369 13.0111 16.0036 13.0111 15.9453V15.9453Z" fill="#F9BF1A"/>
<path d="M30.0365 29.8208C30.0587 29.6016 30.0837 29.4046 30.0948 29.1965C30.153 28.0506 29.909 26.9629 29.3655 25.9557C28.8442 24.9956 28.1149 24.2298 27.1804 23.6527C27.1 23.5944 27.0057 23.55 26.9253 23.4918C25.6415 22.6816 24.854 21.5356 24.5767 20.0428C24.0803 17.357 25.769 14.7654 28.4172 14.1272C29.3544 13.908 30.2667 13.9302 31.1817 14.2188C31.9332 14.4519 32.6514 14.7626 33.3668 15.0984C33.8631 15.3315 34.3373 15.584 34.8142 15.8503C34.8725 15.8864 34.9168 15.9086 34.9889 15.953C34.9889 16.0002 35 16.0334 35 16.0806C35 16.6938 34.964 17.3181 34.9196 17.9313C34.8392 18.8331 34.7006 19.7376 34.5148 20.6172C33.9463 23.2337 32.9425 25.6532 31.484 27.8979C31.0791 28.5222 30.641 29.1244 30.178 29.7043C30.1308 29.7403 30.1059 29.7847 30.0365 29.8208V29.8208Z" fill="#6AD2FF"/>
<path d="M24.0021 34.9999C23.8274 34.9305 23.2978 34.6059 22.7294 34.2258C21.4677 33.3823 20.3003 32.4084 19.2355 31.3207C18.1735 30.2303 17.2251 29.0399 16.4127 27.7552C15.6501 26.5621 15.0151 25.3135 14.5049 23.9928C14.4938 23.9567 14.4827 23.9345 14.4689 23.8762C14.5271 23.9123 14.5493 23.9234 14.5853 23.9456C14.9902 24.2592 15.4172 24.5255 15.8803 24.7198C16.4709 24.975 17.0837 25.1498 17.7298 25.2053C19.0358 25.333 20.2615 25.0666 21.4205 24.4173C22.0223 24.0816 22.6711 23.8624 23.3533 23.768C25.7712 23.4684 28.1781 24.9029 28.9296 27.4029C29.3122 28.6875 29.1958 29.9361 28.6051 31.1542C28.5247 31.3151 28.4554 31.4678 28.3722 31.6176C28.3251 31.7091 28.2696 31.8035 28.1864 31.8729C26.9636 33.0327 25.6215 34.051 24.1657 34.9083C24.1075 34.9416 24.0493 34.9777 24.0021 34.9999V34.9999Z" fill="#08CCA0"/>
</svg>
