<svg width="48" height="48" viewBox="0 0 48 48" fill="none" xmlns="http://www.w3.org/2000/svg">
<path d="M24 48C47.815 48 48 37.255 48 24C48 10.745 47.815 0 24 0C0.184999 0 0 10.745 0 24C0 37.255 0.184999 48 24 48Z" fill="#FF2400"/>
<path fill-rule="evenodd" clip-rule="evenodd" d="M26.1701 34.2075H17.1858V37.0043V37.0536C17.1651 37.6613 16.909 38.2373 16.4717 38.6599C16.0344 39.0825 15.4501 39.3187 14.8419 39.3187C14.2338 39.3187 13.6494 39.0825 13.2121 38.6599C12.7748 38.2373 12.5188 37.6613 12.498 37.0536V34.2075V29.5142V20.8365V20.7379V20.6093C12.8866 14.2577 18.3379 9.27979 24.9085 9.27979C28.1365 9.28921 31.2288 10.5787 33.5072 12.8653C35.7856 15.1519 37.064 18.2489 37.0618 21.4768C37.0782 28.4989 32.3877 33.9667 26.1701 34.1965V34.2075ZM24.6282 14C20.7142 14 17.2375 17.0778 17 21.1327V30H25.6917C29.441 29.8564 32 26.0577 32 21.7296C32 19.6864 31.2245 17.7263 29.8431 16.2778C28.4617 14.8294 26.5868 14.0104 24.6282 14Z" fill="white"/>
</svg>
