<svg width="48" height="48" viewBox="0 0 48 48" fill="none" xmlns="http://www.w3.org/2000/svg">
<path d="M24 48C47.815 48 48 37.255 48 24C48 10.745 47.815 0 24 0C0.184999 0 0 10.745 0 24C0 37.255 0.184999 48 24 48Z" fill="#F4F4F4"/>
<path d="M19.5235 34.1754L18.6918 37.1318L22.0328 38L22.8646 35.0436L19.5235 34.1754Z" fill="#2882DB"/>
<path d="M34 31.488L33.1678 28.5344L29.8487 29.4432L28.6099 25.0356C29.8181 24.0627 30.6855 22.7561 31.0943 21.2931C31.503 19.83 31.4334 18.2816 30.8948 16.8579C30.3563 15.4343 29.3748 14.2044 28.0838 13.3353C26.7928 12.4662 25.2547 12 23.6785 12C22.1022 12 20.5642 12.4662 19.2732 13.3353C17.9821 14.2044 17.0007 15.4343 16.4621 16.8579C15.9236 18.2816 15.8539 19.83 16.2627 21.2931C16.6715 22.7561 17.5389 24.0627 18.747 25.0356L16.4303 33.3419L19.5035 34.1416L20.2033 31.6516L23.5225 32.5603L24.3546 29.6068L21.0355 28.698L22.5106 23.4907C21.4646 23.2106 20.5596 22.5758 19.9631 21.7037C19.3665 20.8317 19.1189 19.7816 19.266 18.7476C19.4131 17.7137 19.9449 16.7659 20.7631 16.0798C21.5813 15.3937 22.6304 15.0156 23.7163 15.0156C24.8022 15.0156 25.8513 15.3937 26.6695 16.0798C27.4877 16.7659 28.0195 17.7137 28.1666 18.7476C28.3137 19.7816 28.0661 20.8317 27.4696 21.7037C26.873 22.5758 25.968 23.2106 24.922 23.4907L28.1371 34.9232L31.2104 34.1235L30.7092 32.3604L34 31.488Z" fill="#6526DD"/>
</svg>
