<svg width="48" height="48" viewBox="0 0 48 48" fill="none" xmlns="http://www.w3.org/2000/svg">
<path d="M24 48C47.815 48 48 37.255 48 24C48 10.745 47.815 0 24 0C0.184999 0 0 10.745 0 24C0 37.255 0.184999 48 24 48Z" fill="#F4F4F4"/>
<path d="M14 29.5558L24.0435 24L34 29.3883L24.0435 35L14 29.5558Z" fill="#EB4340"/>
<path d="M14.0873 18.5558L24.0437 13V24.0838L14.0873 29.5V18.5558Z" fill="#D31E25"/>
<path d="M14.0873 18.5558L24.0437 13V24.0838L14.0873 29.5V18.5558Z" fill="#D31E25"/>
<path d="M33.9707 18.5558L24.0142 13V24.0838L33.9707 29.5V18.5558Z" fill="#B9181E"/>
<path d="M33.9707 18.5558L24.0142 13V24.0838L33.9707 29.5V18.5558Z" fill="#B9181E"/>
<path d="M19.0798 21.3198L24.0309 18.5279L28.9492 21.3198L24.0309 24.1396L19.0798 21.3198Z" fill="#EE4242"/>
<path d="M24.0724 24.1675L28.949 21.3197L28.949 26.8197L24.0724 29.5279L24.0724 24.1675Z" fill="#D5262A"/>
<path d="M24.0289 24.1953L19.1523 21.3476L19.1523 26.8476L24.0289 29.5557L24.0289 24.1953Z" fill="#B9181E"/>
</svg>
