<svg width="48" height="48" viewBox="0 0 48 48" fill="none" xmlns="http://www.w3.org/2000/svg">
<path d="M24 48C47.815 48 48 37.255 48 24C48 10.745 47.815 0 24 0C0.184999 0 0 10.745 0 24C0 37.255 0.184999 48 24 48Z" fill="#6DCDFF"/>
<path d="M30.8255 16.989C29.6546 16.3598 28.3733 15.9504 27.0699 15.7615C25.8526 15.5849 24.5865 15.6715 23.3598 15.6781L19.1888 15.6995L17.2387 15.7108V24.1764H21.8979V30.039C21.8979 30.039 23.7429 29.4748 23.8457 26.8261C23.8866 25.7593 23.8952 24.7667 23.8901 23.962V21.9841H19.5444V17.932H25.8622C29.0628 17.932 32.1437 19.5808 33.5605 22.6909C34.6125 24.9993 34.2675 27.2098 34.128 28.0331C33.8116 29.9001 32.9863 31.457 31.8409 32.7118C29.1805 35.627 24.7898 36.9107 21.0243 36.653C20.2895 36.5991 19.558 36.5051 18.8326 36.3712C18.168 36.2196 17.517 36.0089 16.8866 35.7416C16.907 35.758 16.9275 35.7732 16.9479 35.7888C17.0968 35.9058 17.2523 36.0134 17.4134 36.1111C17.657 36.2565 17.911 36.3813 18.1611 36.5132C18.4018 36.64 18.6461 36.7591 18.8939 36.8705C19.9012 37.3235 20.9582 37.6439 22.0409 37.8247C22.5974 37.9175 23.1589 37.9735 23.7221 37.9925C23.868 37.9974 24.014 37.9999 24.16 37.9997H24.188C24.6241 38.0007 25.06 37.9777 25.4938 37.9309L25.5484 37.9251C25.5892 37.9206 25.6301 37.9153 25.671 37.9104C26.4452 37.8153 27.2092 37.6445 27.9529 37.4004C29.1961 36.9976 30.3703 36.391 31.4318 35.6033C33.7287 33.9015 34.891 31.8272 35.1998 31.249C35.1998 31.249 35.7311 30.2254 36.0435 28.6177C36.4246 26.6513 36.4763 23.8128 34.8228 20.9017C33.8727 19.2258 32.4795 17.8782 30.8255 16.989Z" fill="white"/>
<path d="M20.534 34.1465C21.3848 34.1534 22.2322 34.0355 23.0511 33.7961C25.3315 33.131 26.7166 31.7207 27.0705 31.3428C27.8697 30.4928 28.5 29.4883 28.9256 28.3863C29.4046 27.1354 29.5394 25.7128 29.5625 24.3762C29.5638 24.3042 29.5679 23.872 29.5734 23.3853C29.5734 22.7544 29.5734 22.1737 29.5722 21.8573H27.5895V24.0687C27.5895 26.4733 26.8359 29.1298 24.9271 30.6491C22.548 32.5427 18.7556 32.3213 16.2357 30.476C13.0518 28.1449 12.454 23.3985 13.5378 19.7609C14.5713 16.2896 17.3327 13.7814 20.6179 12.6856C23.5549 11.7058 26.8409 11.7912 29.7148 12.9633C32.7916 14.2176 35.2684 16.6667 37 19.5597L36.5556 18.5237C36.7335 18.8545 36.8822 19.2012 37 19.5597C36.7223 18.7121 36.3704 17.8925 35.9488 17.1113C35.6952 16.6392 35.4176 16.1813 35.1173 15.7397C35.0876 15.6907 34.9054 15.4057 34.5505 14.9667C34.3823 14.755 34.28 14.6432 34.28 14.6432C34.2077 14.5595 34.1307 14.4725 34.049 14.3822C33.4436 13.714 32.7781 13.1072 32.0615 12.57C25.3135 7.53239 15.5281 10.194 12.0339 17.9937C12.0133 18.0364 11.9927 18.0791 11.9733 18.1218C11.7617 18.5906 11.5826 19.0744 11.4374 19.5695C11.0343 20.9843 10.9516 22.3916 11.0231 23.6455C11.085 24.7137 11.159 26.3296 11.9723 28.162C12.2432 28.7722 13.7215 31.9436 17.115 33.4069C18.7343 34.1042 20.1615 34.1427 20.534 34.1465Z" fill="white"/>
</svg>
