<svg width="48" height="48" viewBox="0 0 48 48" fill="none" xmlns="http://www.w3.org/2000/svg">
<path d="M24 48C47.815 48 48 37.255 48 24C48 10.745 47.815 0 24 0C0.184999 0 0 10.745 0 24C0 37.255 0.184999 48 24 48Z" fill="#41C8FC"/>
<path d="M15 19.7108V22.8434H33V19.7108H31.3549V19.6466C31.3709 19.6305 31.3869 19.5984 31.4028 19.5502C31.4028 19.4859 31.4188 19.4217 31.4508 19.3574C31.4827 19.2932 31.4987 19.1968 31.5146 19.1004C31.5146 18.988 31.5306 18.8755 31.5306 18.747C31.5306 16.8675 30.7799 15.2771 29.2946 13.9598C27.8092 12.6426 25.8767 12 23.5129 12C22.5705 12 21.6602 12.1124 20.7977 12.3373C19.9193 12.5622 19.2165 12.8193 18.6894 13.0924C18.1464 13.3655 17.6513 13.6707 17.1881 14.0241C16.709 14.3775 16.4055 14.6185 16.2777 14.7631C16.15 14.9076 16.0541 15.0201 15.9902 15.1165L18.929 18.249L19.3922 17.751C19.7116 17.4137 20.2387 17.0763 20.9414 16.755C21.6442 16.4337 22.3789 16.2731 23.1775 16.2731C24.1038 16.2731 24.8545 16.5141 25.4295 16.996C26.0044 17.4779 26.2919 18.0723 26.2919 18.747C26.276 19.1807 26.1642 19.502 25.9565 19.7108H15ZM33 28.257V25.1406H15V28.257H16.6451V28.3373C16.6131 28.3695 16.5972 28.4016 16.5972 28.4498C16.5812 28.5141 16.5652 28.5622 16.5492 28.6265C16.5173 28.6908 16.5013 28.7871 16.5013 28.8996C16.4854 29.012 16.4854 29.1245 16.4854 29.253C16.4854 31.1165 17.2201 32.7068 18.7054 34.0241C20.1748 35.3414 22.1074 36 24.4871 36C25.4135 36 26.3239 35.8876 27.2023 35.6627C28.0648 35.4378 28.7675 35.1807 29.3106 34.9076C29.8536 34.6345 30.3487 34.3133 30.8279 33.9598C31.291 33.6064 31.5945 33.3655 31.7223 33.2209C31.85 33.0763 31.9459 32.9639 32.0098 32.8675L29.071 29.751L28.6078 30.2329C28.2884 30.5703 27.7613 30.9076 27.0586 31.2289C26.3558 31.5502 25.6051 31.7108 24.8225 31.7108C23.8802 31.7108 23.1295 31.4699 22.5546 30.988C21.9796 30.506 21.7081 29.9277 21.7081 29.253C21.7081 28.8032 21.8199 28.4819 22.0435 28.257H33Z" fill="white"/>
</svg>
