<svg width="48" height="48" viewBox="0 0 48 48" fill="none" xmlns="http://www.w3.org/2000/svg">
<path d="M24 48C47.815 48 48 37.255 48 24C48 10.745 47.815 0 24 0C0.184999 0 0 10.745 0 24C0 37.255 0.184999 48 24 48Z" fill="#4FAA4D"/>
<path d="M26.1395 21.6276V19.0341H32.2654V15H15.5292V19.0341H21.6547V21.6375C16.7067 21.8897 13 22.9233 13 24.1602C13 25.3971 16.7067 26.4307 21.6547 26.6829V34.7649C22.4123 34.9193 23.1966 35 24 35C24.731 35 25.4462 34.933 26.1395 34.8048V26.6929C31.1904 26.4592 35 25.4142 35 24.1602C35 22.9063 31.1904 21.8613 26.1395 21.6276ZM24 25.7543C18.4807 25.7543 14.0064 24.9255 14.0064 23.9028C14.0064 23.0298 17.2671 22.2978 21.6547 22.1026V25.0679C22.3985 25.1748 23.1481 25.2285 23.8971 25.2285C24.6466 25.2285 25.3962 25.1748 26.1395 25.0679V22.0935C30.6306 22.2754 33.9932 23.016 33.9932 23.9028C33.9931 24.9254 29.5188 25.7543 24 25.7543Z" fill="white"/>
</svg>
