<svg width="48" height="48" viewBox="0 0 48 48" fill="none" xmlns="http://www.w3.org/2000/svg">
<path d="M24 48C47.815 48 48 37.255 48 24C48 10.745 47.815 0 24 0C0.184999 0 0 10.745 0 24C0 37.255 0.184999 48 24 48Z" fill="#002FFF"/>
<path fill-rule="evenodd" clip-rule="evenodd" d="M23.2929 13.7071C23.6834 13.3166 24.3166 13.3166 24.7071 13.7071L33.8995 22.8995C34.29 23.29 34.29 23.9232 33.8995 24.3137L24.7071 33.5061C24.3166 33.8966 23.6834 33.8966 23.2929 33.5061L14.1005 24.3137C13.71 23.9232 13.71 23.29 14.1005 22.8995L23.2929 13.7071Z" fill="white"/>
</svg>
