<svg width="48" height="48" viewBox="0 0 48 48" fill="none" xmlns="http://www.w3.org/2000/svg">
<path d="M24 48C47.815 48 48 37.255 48 24C48 10.745 47.815 0 24 0C0.184999 0 0 10.745 0 24C0 37.255 0.184999 48 24 48Z" fill="#F4F4F4"/>
<path d="M17.7194 34.8845C19.1149 35.8624 21.6739 34.6431 23.4879 32.1627C23.5135 32.1298 23.541 32.0991 23.565 32.0647C24.5628 30.6568 24.219 28.7102 22.7986 27.7148C21.3782 26.7194 19.4181 27.0541 18.4217 28.4618C18.3972 28.4964 18.3771 28.5323 18.3543 28.5675C16.6163 31.1016 16.3239 33.9076 17.7194 34.8845" fill="#ED8117"/>
<path d="M19.1455 33.0086C20.1169 33.6727 21.91 32.8275 23.1875 31.1208C23.2062 31.0981 23.2253 31.0771 23.2428 31.0533C23.4098 30.8253 23.529 30.5666 23.5935 30.2924C23.6579 30.0183 23.6662 29.7342 23.618 29.4568C23.5697 29.1794 23.4658 28.9144 23.3124 28.6772C23.159 28.44 22.9592 28.2354 22.7246 28.0755C21.7354 27.3986 20.3638 27.6357 19.6615 28.6042C19.6436 28.6281 19.6301 28.6528 19.6144 28.6766C18.3892 30.4198 18.1736 32.3441 19.1455 33.0086" fill="#EEBB18"/>
<path d="M13.1166 24.9496C12.9701 25.1357 12.8978 25.416 13.2959 25.2937C14.4313 24.945 17.0053 24.538 19.993 26.5844C24.0284 29.348 23.7007 22.1852 23.7007 22.1852C22.7424 21.5295 17.9207 18.868 13.1166 24.9496V24.9496ZM28.4568 35.7481C28.4739 36.1529 28.7158 35.9938 28.8427 35.7982C32.9965 29.3883 28.8609 25.857 27.9182 25.198C27.9182 25.198 21.0235 27.2701 24.9923 30.0472C27.9309 32.1033 28.4071 34.5938 28.4568 35.7481" fill="#5B6A72"/>
<path d="M24.2634 31.1337C25.0513 31.7089 25.5279 31.8027 26.1005 31.1043C26.6732 30.4058 29.6848 26.918 32.6935 23.0729C35.7023 19.2278 33.8669 12.6111 33.5058 12.3475L33.5011 12.3531L33.5042 12.3461C33.1431 12.0825 26.507 12.5212 24.0238 16.7494C21.5406 20.9776 19.383 25.0882 18.941 25.8814C18.499 26.6746 18.7445 27.1091 19.5323 27.6838C19.8912 27.9451 20.902 28.6825 21.8978 29.4087C22.8936 30.1349 23.9045 30.8725 24.2634 31.1337" fill="#5B6A72"/>
<path d="M25.1521 31.9833H25.1194C24.7599 31.9737 24.3849 31.815 23.8658 31.4522C23.5007 31.1973 22.484 30.4869 21.4702 29.7777L21.4105 29.736L19.8155 28.6218L18.9544 28.0202C18.4363 27.6577 18.1591 27.3615 18.0294 27.0292C17.8264 26.5095 18.0451 26.0329 18.2268 25.7195C18.3221 25.5555 18.4966 25.2452 18.7379 24.8159C19.6249 23.2377 21.47 19.9535 23.5095 16.6272C24.2434 15.4301 25.3656 14.4256 26.8451 13.64C27.627 13.2251 28.9334 12.6539 30.7124 12.2887C31.4157 12.1444 32.1366 12.0466 32.7422 12.0129C33.6705 11.9614 33.8352 12.0768 33.9145 12.1323L33.9219 12.1376C34.0032 12.1948 34.1663 12.3255 34.4243 13.1909C34.597 13.771 34.747 14.4805 34.8465 15.1887C35.1197 17.1314 35.2628 20.7762 33.1518 23.3596C30.681 26.3848 28.1852 29.2149 26.9857 30.5741C26.6591 30.9445 26.4231 31.212 26.2996 31.3563C26.1196 31.5664 25.943 31.7184 25.7594 31.8215C25.5748 31.927 25.3654 31.9828 25.1521 31.9833V31.9833ZM33.1828 12.7733C32.5329 12.7733 31.1123 12.9055 29.5103 13.3899C27.7737 13.9144 25.439 14.9718 24.1797 17.0274C22.1474 20.3412 20.3067 23.6168 19.422 25.1908C19.1791 25.6231 19.0036 25.935 18.9054 26.1042C18.6941 26.4679 18.717 26.641 18.7594 26.751C18.8277 26.9258 19.0333 27.1286 19.4063 27.3894L20.2676 27.9909L21.8626 29.1051L21.9224 29.147C22.9362 29.8555 23.9528 30.5658 24.3178 30.8214C25.0872 31.359 25.3154 31.3089 25.702 30.8579C25.8291 30.7093 26.0667 30.4393 26.3955 30.0671C27.5918 28.711 30.081 25.8888 32.542 22.8757C34.0698 21.0055 34.2871 18.4676 34.2006 16.6678C34.1063 14.7183 33.6364 13.1675 33.4486 12.7843C33.3602 12.7759 33.2715 12.772 33.1828 12.7726" fill="#F4F4F4"/>
<path d="M26.6939 21.6508C27.9511 22.5259 29.6884 22.2283 30.5723 20.9867C31.4561 19.7451 31.1562 18.0297 29.899 17.1546C28.6417 16.2796 26.9051 16.5765 26.0206 17.8185C25.1361 19.0606 25.4371 20.7756 26.6939 21.6508Z" fill="#FEFEFE"/>
<path d="M28.291 22.5418C27.7095 22.5402 27.1397 22.3811 26.6434 22.0818C26.1471 21.7826 25.7435 21.3548 25.4764 20.8448C25.2092 20.3348 25.0888 19.7623 25.1283 19.1895C25.1678 18.6166 25.3656 18.0655 25.7002 17.5959C25.9402 17.259 26.2452 16.972 26.5976 16.7516C26.95 16.5311 27.343 16.3814 27.7541 16.311C28.1651 16.2406 28.5862 16.2509 28.9933 16.3414C29.4003 16.4318 29.7853 16.6006 30.1262 16.838C31.5587 17.8351 31.9032 19.7966 30.8942 21.2103C30.655 21.5479 30.3503 21.8353 29.9977 22.0558C29.6452 22.2763 29.2519 22.4255 28.8405 22.4947C28.659 22.5259 28.4752 22.5417 28.291 22.5418V22.5418ZM28.3009 17.0399C28.1622 17.0399 28.0237 17.0517 27.8871 17.0751C27.5776 17.1273 27.2818 17.2397 27.0166 17.4056C26.7514 17.5716 26.5223 17.7879 26.3424 18.042C25.5835 19.1068 25.8427 20.5838 26.9204 21.3342C27.177 21.5129 27.4667 21.6399 27.7731 21.7079C28.0794 21.776 28.3964 21.7837 28.7058 21.7308C29.0151 21.6778 29.3109 21.5652 29.5762 21.3993C29.8415 21.2334 30.0711 21.0175 30.2518 20.7639C31.0116 19.6992 30.7521 18.2226 29.6735 17.4719C29.2723 17.191 28.7927 17.04 28.3009 17.0399" fill="#5B6A72"/>
</svg>
