<svg width="48" height="48" viewBox="0 0 48 48" fill="none" xmlns="http://www.w3.org/2000/svg">
<path d="M24 48C47.815 48 48 37.255 48 24C48 10.745 47.815 0 24 0C0.184999 0 0 10.745 0 24C0 37.255 0.184999 48 24 48Z" fill="#FF6600"/>
<path fill-rule="evenodd" clip-rule="evenodd" d="M14.896 16.6433V28.3958L10.7052 28.396C10.248 27.0134 10 25.5359 10 24C10 16.2681 16.2679 10 24 10C31.7322 10 38 16.2681 38 24C38 25.5359 37.7517 27.0134 37.2948 28.396H33.1033V16.6523L24.004 25.7515L14.896 16.6433ZM30.0658 23.814V31.2437H35.9824C33.5289 35.2932 29.0807 38 24 38C18.9193 38 14.4709 35.2932 12.0175 31.2437H17.882V23.8569L23.9524 29.9272L30.0658 23.814Z" fill="white"/>
</svg>
