<svg width="48" height="48" viewBox="0 0 48 48" fill="none" xmlns="http://www.w3.org/2000/svg">
<path d="M24 48C47.815 48 48 37.255 48 24C48 10.745 47.815 0 24 0C0.184999 0 0 10.745 0 24C0 37.255 0.184999 48 24 48Z" fill="#4F8EE1"/>
<path d="M31.7765 15H34.9585L28.3384 21.473C25.942 23.8162 22.0567 23.8162 19.6603 21.473L13.0403 15H16.2222L21.2513 19.9174C22.769 21.4014 25.2297 21.4014 26.7474 19.9174L31.7765 15Z" fill="white"/>
<path d="M16.182 32.9999H13L19.661 26.4869C22.0573 24.1437 25.9426 24.1437 28.339 26.4869L35 32.9999H31.818L26.748 28.0425C25.2303 26.5585 22.7696 26.5585 21.2519 28.0425L16.182 32.9999Z" fill="white"/>
</svg>
